<?xml version="1.0" encoding="UTF-8" standalone="no"?>
<!-- Created with Inkscape (http://www.inkscape.org/) -->

<svg
   xmlns:dc="http://purl.org/dc/elements/1.1/"
   xmlns:cc="http://creativecommons.org/ns#"
   xmlns:rdf="http://www.w3.org/1999/02/22-rdf-syntax-ns#"
   xmlns:svg="http://www.w3.org/2000/svg"
   xmlns="http://www.w3.org/2000/svg"
   xmlns:sodipodi="http://sodipodi.sourceforge.net/DTD/sodipodi-0.dtd"
   xmlns:inkscape="http://www.inkscape.org/namespaces/inkscape"
   width="360"
   height="70"
   id="svg2"
   version="1.1"
   inkscape:version="0.48.2 r9819"
   sodipodi:docname="新規ドキュメント 1">
  <defs
     id="defs4" />
  <sodipodi:namedview
     id="base"
     pagecolor="#ffffff"
     bordercolor="#666666"
     borderopacity="1.0"
     inkscape:pageopacity="0.0"
     inkscape:pageshadow="2"
     inkscape:zoom="0.98994949"
     inkscape:cx="159.65894"
     inkscape:cy="2.4388787"
     inkscape:document-units="px"
     inkscape:current-layer="layer1"
     showgrid="false"
     inkscape:window-width="769"
     inkscape:window-height="435"
     inkscape:window-x="75"
     inkscape:window-y="75"
     inkscape:window-maximized="0" />
  <metadata
     id="metadata7">
    <rdf:RDF>
      <cc:Work
         rdf:about="">
        <dc:format>image/svg+xml</dc:format>
        <dc:type
           rdf:resource="http://purl.org/dc/dcmitype/StillImage" />
        <dc:title></dc:title>
      </cc:Work>
    </rdf:RDF>
  </metadata>
  <g
     inkscape:label="レイヤー 1"
     inkscape:groupmode="layer"
     id="layer1"
     transform="translate(0,-982.36218)">
    <path
       id="path3205"
       style="fill:#000000;fill-opacity:1;fill-rule:nonzero;stroke:none"
       d="m 82.127656,1030.5756 c 0,-0.092 -0.0112,-20.525 0,-22.7337 0.0213,-5.1688 0.37375,-9.60131 0.37375,-9.60131 l -12.31125,0 c 0,0 0.355,4.76751 0.39125,9.35001 l 0,23.2388 c 0.03,4.1287 -0.27625,8.6387 -0.27625,8.6387 l 12.15625,0 c 0,0 -0.32875,-4.9262 -0.33375,-8.8975"
       inkscape:connector-curvature="0" />
    <path
       id="path3207"
       style="fill:#000000;fill-opacity:1;fill-rule:nonzero;stroke:none"
       d="m 234.62265,1030.5756 c 0,-0.092 -0.007,-20.7025 0,-22.91 0.0213,-5.1687 0.375,-9.60251 0.375,-9.60251 l -12.3125,0.01 c 0,0 0.35875,4.76631 0.395,9.35001 l 0,23.4138 c 0.0262,4.1287 -0.28125,8.6387 -0.28125,8.6387 l 12.16125,0 c 0,0 -0.3325,-4.9262 -0.3375,-8.8975"
       inkscape:connector-curvature="0" />
    <path
       id="path3209"
       style="fill:#000000;fill-opacity:1;fill-rule:nonzero;stroke:none"
       d="m 111.14765,1032.7031 c -3.675,-4.1562 -11.667494,-12.9325 -15.738744,-18.3025 3.365,-3.0875 7.883744,-7.42 12.279994,-11.635 l 4.72,-4.52501 -2.4525,0 -8.70875,0 -0.42249,0 -0.29125,0.305 c -3.421254,3.59501 -9.166254,8.93501 -17.068754,15.86501 l -0.7175,0.6213 0.59875,0.7362 c 0.17625,0.2263 18.032494,22.4475 18.677494,23.2963 l 0.2925,0.39 15.09875,0 c 0,0 -2.59375,-2.5963 -6.2675,-6.7513"
       inkscape:connector-curvature="0" />
    <path
       id="path3211"
       style="fill:#000000;fill-opacity:1;fill-rule:nonzero;stroke:none"
       d="m 337.72015,1004.5956 c 3.75125,0 10.73125,0.3788 10.73125,0.3788 l 0.005,-6.94501 -0.99,10e-4 -39.17875,0.02 c 0,0 0.34875,4.24121 0.34875,8.54751 l 0.0113,24.8087 c 0,3.5838 -0.24375,8.0375 -0.24375,8.0375 l 39.97375,-0.03 0.009,-6.9437 c 0,0 -5.2425,0.325 -10.15625,0.325 l -18.24875,0 0,-11.8763 17.395,0 c 4.67875,0 9.4075,0.2513 9.4075,0.2513 l 0.006,-6.7975 c 0,0 -4.90125,0.2 -9.41375,0.2 l -17.395,0 0,-9.9775 17.73875,0 z"
       inkscape:connector-curvature="0" />
    <path
       id="path3213"
       style="fill:#000000;fill-opacity:1;fill-rule:nonzero;stroke:none"
       d="m 189.9864,1032.9756 c -0.025,-0.9712 -0.0713,-2.43 -0.0713,-2.43 l 0,-22.815 c 0.02,-5.19 0.28,-9.63371 0.28,-9.63371 l -12.27,0.01 c 0,0 0.37,4.78121 0.41125,9.37751 l 0,23.3212 c 0.0263,4.1488 -0.27125,8.6663 -0.27125,8.6663 l 34.1775,-0.019 0.0737,-6.695 c 0,0 -4.72,0.2062 -6.845,0.22 l -15.485,0 z"
       inkscape:connector-curvature="0" />
    <path
       id="path3215"
       style="fill:#000000;fill-opacity:1;fill-rule:nonzero;stroke:none"
       d="m 50.923906,1020.7956 c -3.96375,-2.9137 -11.51625,-7.545 -17.03125,-10.925 l -3.3075,-2.0337 c -1.00375,-0.6225 -1.64625,-1.0513 -2.1775,-1.5563 -0.19875,-0.1825 -0.29625,-0.4812 -0.2275,-0.7237 0.0825,-0.32 0.4275,-0.4663 0.69875,-0.5325 0.645,-0.1625 1.2625,-0.2663 2.51375,-0.34 3.53625,-0.2088 13.4075,-0.1088 16.95375,0.031 1.88125,-0.014 5.92125,0.2975 8.3425,0.5937 l -0.009,-7.09251 -0.95,-0.034 c -7.6725,-0.26995 -22.285,-0.27245 -29.5075,-0.01 -6.46375,0.2375 -10.7,2.43001 -11.62,6.01631 -0.9125,3.545 1.8225,7.625 7.31125,10.9125 l 5.4725,3.2062 c 5.3225,3.0963 11.94375,6.9475 14.60625,8.9875 1.3375,1.0238 2.27625,1.9463 2.79625,2.7463 0.20875,0.3187 0.4225,0.8 0.255,1.2787 -0.16125,0.4663 -0.655,0.8613 -1.38625,1.1088 -1.07375,0.3625 -2.58625,0.5825 -4.49875,0.655 -3.7175,0.1337 -13.24375,0.2087 -17.03625,-0.082 -2.7613,-0.015 -8.5588,-0.8075 -8.5588,-0.8075 l 0,7.3162 0.945,0.041 c 7.145,0.3088 21.35375,0.46 28.26,0.01 8.26875,-0.5475 13.6875,-3.1825 14.8725,-7.235 0.72125,-2.4812 0.14375,-6.4925 -6.7175,-11.5312"
       inkscape:connector-curvature="0" />
    <path
       id="path3217"
       style="fill:#000000;fill-opacity:1;fill-rule:nonzero;stroke:none"
       d="m 161.2639,998.12309 -0.28875,0.3038 c -3.70625,3.89751 -11.4625,11.38251 -14.775,14.55001 -2.67875,-2.885 -11.41125,-12.325 -11.98,-13.15501 l -1.36875,-1.6925 -14.78625,-0.01 5.09375,4.63371 c 0.8025,0.69 5.8025,6.0888 14.87,16.0463 0,0 0.3525,0.3837 0.60375,0.66 l 0,11.7562 c 0,1.65 -0.44875,8.2375 -0.44875,8.2375 l 12.21875,0 c 0,0 -0.4775,-6.8225 -0.4825,-8.4687 0,0 -0.005,-10.9413 -0.005,-11.6813 6.27,-6.5837 15.52,-15.8212 16.38875,-16.6575 1.105,-1.0675 5.25125,-4.52621 5.25125,-4.52621 l -2.74,0 -7.55125,0 z"
       inkscape:connector-curvature="0" />
    <path
       id="path3219"
       style="fill:#000000;fill-opacity:1;fill-rule:nonzero;stroke:none"
       d="m 284.40265,998.05189 c 0,0 0.44375,5.02001 0.44375,9.31121 0,0.01 -0.005,14.6375 -0.006,21.3538 -3.03775,-4.6725 -19.9315,-30.66501 -19.9315,-30.66501 l -14.5675,0 c 0,0 0.48375,6.16121 0.48375,9.10621 l 0,23.6213 c 0,4.9137 -0.3275,8.665 -0.3275,8.665 l 8.38625,0 c 0,0 -0.49625,-4.1188 -0.49625,-8.885 l 0,-22.1988 c 3.0475,4.6725 20.255,31.0838 20.255,31.0838 l 13.8025,0 0.01,-32.0625 c 0,-5.2038 0.37625,-9.33001 0.37625,-9.33001 l -8.42875,0 z"
       inkscape:connector-curvature="0" />
  </g>
</svg>
